<?xml version="1.0" encoding="UTF-8" standalone="no"?>
<svg width="32px" height="32px" viewBox="0 0 32 32" version="1.1" xmlns="http://www.w3.org/2000/svg" xmlns:xlink="http://www.w3.org/1999/xlink">
    <!-- Generator: Sketch 44.1 (41455) - http://www.bohemiancoding.com/sketch -->
    <title>Folder 14</title>
    <desc>Created with Sketch.</desc>
    <defs></defs>
    <g id="Page-2-Copy" stroke="none" stroke-width="1" fill="none" fill-rule="evenodd">
        <g id="228" stroke="#979797">
            <path d="M30,10 L32,10 L32,29.9950534 C32,31.1029738 31.103789,32 29.9982567,32 L2.00174332,32 C0.889261723,32 0,31.1023548 0,29.9950534 L0,10 L1.99984447,10 C1.9994626,15.4225254 1.99871742,30 2.00174332,30 C2.00174332,30 30,29.9988104 30,29.9950534 L30,10 L30,10 Z M13.3797894,1.7050473 C12.4138242,0.739082077 11.6253905,0 10.2603472,0 L3.00018136,0 C1.34396721,0 0,1.34283309 0,2.9973917 L0,10.0026083 C0,10.0026083 1.34325689,10 2.99161703,10 L29.008383,10 C30.6603133,10 32,10.0020869 32,10.0020869 L32,5.99791312 C32,4.34240254 30.6611597,3 29.0065851,3 L16.2539435,3 C15.4204464,3 14.1454497,2.47070759 13.5554813,1.88073914 L13.3797894,1.7050473 L13.3797894,1.7050473 Z M30,5.99791312 L30,8.00208688 L2,8.0026083 L2,2.9973917 C2,2.44778073 2.44815892,2 3.00018136,2 L10.2603472,2 C11.0955442,2 11.3750999,2.52878487 11.9655759,3.11926086 L12.1412677,3.2949527 C13.1059108,4.25959584 14.8894484,5 16.2539435,5 L29.0065851,5 C29.5553988,5 30,5.44578415 30,5.99791312 L30,5.99791312 Z" id="Rectangle-1095" stroke="none" fill="#95909E" fill-rule="nonzero"></path>
            <path d="M12.8180195,23.8033009 L13.1409304,23.4803899 L21.9774989,14.6438214 C22.361501,14.2598193 22.995427,14.2590583 23.3859513,14.6495826 C23.7791983,15.0428296 23.7772827,15.6724648 23.3877539,16.0619935 L13.5233236,25.9264238 C13.1313464,26.3184011 12.501437,26.3151455 12.1109127,25.9246212 C12.1081431,25.9218516 12.105393,25.9190702 12.1026626,25.9162772 C12.099879,25.9135561 12.0971071,25.9108156 12.0943472,25.9080557 L8.5750262,22.3887347 C8.18434663,21.9980551 8.18485451,21.365398 8.5753788,20.9748737 C8.96862575,20.5816268 9.5989102,20.5841916 9.98923976,20.9745211 L12.8180195,23.8033009 L12.8180195,23.8033009 Z" id="Rectangle-348" stroke="none" fill="#2A2630" fill-rule="evenodd"></path>
        </g>
    </g>
</svg>