<?xml version="1.0" encoding="iso-8859-1"?>
<!-- Generator: Adobe Illustrator 19.1.0, SVG Export Plug-In . SVG Version: 6.00 Build 0)  -->
<svg version="1.1" id="Capa_1" xmlns="http://www.w3.org/2000/svg" xmlns:xlink="http://www.w3.org/1999/xlink" x="0px" y="0px"
	 viewBox="0 0 151.4 151.4" style="enable-background:new 0 0 151.4 151.4;" xml:space="preserve">
<g>
	<path d="M47.804,42.127c-0.453,0-0.884-0.205-1.17-0.561c-5.048-6.295-4.494-13.216-4.468-13.508
		c0.416-7.445,5.452-7.832,5.667-7.845c0.673-0.033,1.297,0.379,1.512,1.023c0.402,1.207,3.8,8.008,5.985,12.286
		c0.372,0.729,0.092,1.621-0.63,2.006c-3.081,1.643-5.579,5.82-5.604,5.862c-0.251,0.423-0.694,0.698-1.186,0.732
		C47.875,42.126,47.84,42.127,47.804,42.127z M47.085,23.591c-0.772,0.525-1.764,1.766-1.928,4.685
		c-0.007,0.094-0.362,4.898,2.622,9.721c0.98-1.314,2.469-3.058,4.256-4.333C50.82,31.27,48.28,26.229,47.085,23.591z"/>
	<path d="M103.349,42.127c-0.035,0-0.071-0.001-0.106-0.004c-0.491-0.035-0.935-0.309-1.186-0.732
		c-0.025-0.042-2.523-4.219-5.604-5.862c-0.722-0.385-1.002-1.277-0.63-2.006c2.186-4.277,5.583-11.08,5.985-12.286
		c0.215-0.644,0.821-1.056,1.512-1.023c0.214,0.013,5.25,0.399,5.67,7.894c0.022,0.242,0.576,7.163-4.472,13.458
		C104.234,41.923,103.802,42.127,103.349,42.127z M99.119,33.664c1.787,1.276,3.276,3.02,4.257,4.334
		c3.011-4.849,2.629-9.62,2.624-9.673c-0.165-2.943-1.153-4.196-1.934-4.729C102.871,26.236,100.333,31.271,99.119,33.664z"/>
	<path d="M67.686,144.736c-2.835,0-5.141-2.307-5.141-5.143c0-2.834,2.306-5.141,5.141-5.141s5.142,2.306,5.142,5.141
		C72.827,142.429,70.521,144.736,67.686,144.736z M67.686,137.453c-1.181,0-2.141,0.96-2.141,2.141c0,1.182,0.96,2.143,2.141,2.143
		s2.142-0.961,2.142-2.143C69.827,138.414,68.866,137.453,67.686,137.453z"/>
	<path d="M71.326,141.094c-0.776,0-1.432-0.597-1.494-1.381c-0.048-0.515-0.646-4.914-7.153-4.914c-0.829,0-1.5-0.671-1.5-1.5
		s0.671-1.5,1.5-1.5c7.584,0,9.952,5.028,10.145,7.687c0.06,0.826-0.562,1.545-1.388,1.604
		C71.399,141.092,71.362,141.094,71.326,141.094z"/>
	<path d="M54.909,85.539c-0.795,0-1.458-0.625-1.497-1.427c-0.512-10.552-9.159-11.3-9.526-11.327
		c-0.827-0.06-1.448-0.778-1.388-1.604c0.06-0.827,0.788-1.44,1.604-1.388c0.117,0.008,11.667,0.999,12.306,14.173
		c0.041,0.828-0.598,1.531-1.425,1.571C54.958,85.539,54.933,85.539,54.909,85.539z"/>
	<path d="M46.856,80.586c-0.271,0-0.543-0.022-0.816-0.066c-1.258-0.205-2.37-0.864-3.129-1.856
		c-0.779-1.019-1.097-2.264-0.895-3.505c0.412-2.528,2.887-4.236,5.516-3.81c1.258,0.204,2.369,0.863,3.129,1.856
		c0.78,1.019,1.098,2.264,0.896,3.506l0,0c-0.202,1.241-0.898,2.32-1.96,3.04C48.785,80.3,47.835,80.586,46.856,80.586z
		 M46.722,74.284c-0.866,0-1.616,0.56-1.746,1.357c-0.068,0.417,0.044,0.843,0.317,1.199c0.292,0.382,0.729,0.637,1.229,0.719
		c0.499,0.083,0.994-0.022,1.392-0.292c0.372-0.251,0.614-0.62,0.682-1.038c0.068-0.417-0.045-0.844-0.317-1.2
		c-0.292-0.382-0.729-0.638-1.228-0.719C46.94,74.292,46.83,74.284,46.722,74.284z"/>
	<path d="M75.972,151.4H69.16c-6.611,0-9.918-5.713-10.056-5.957c-3.671-6.275-3.138-13.976-2.709-20.163
		c0.052-0.743,0.102-1.466,0.143-2.163c0.346-5.884-2.174-10.655-2.199-10.703c-21.513-39.6-10.537-65.313-10.424-65.569
		c0.127-0.286-0.077-0.613-0.08-0.616c-0.052-0.069-0.098-0.143-0.137-0.22l-1.207-2.375c-6.762-12.019-5.754-24.01,2.867-33.707
		l0.244-0.277c0.865-1.019,1.787-1.487,2.734-1.383c0.906,0.097,1.533,0.699,1.816,1.23c0.024,0.045,0.046,0.091,0.065,0.139
		c0.283,0.692,6.939,16.978,7.938,19.754c0.113,0.313,0.215,0.547,0.302,0.72c5.208-3.447,10.559-4.692,14.193-5.125
		c0.823-0.102,1.569,0.489,1.667,1.312c0.098,0.822-0.489,1.569-1.312,1.667c-3.434,0.409-8.546,1.612-13.432,5.015
		c-0.397,0.315-1.029,0.557-1.759,0.389c-1.384-0.32-2.079-1.844-2.482-2.962c-0.845-2.348-6.074-15.179-7.522-18.727l-0.211,0.24
		c-7.816,8.792-8.668,19.269-2.464,30.299l1.194,2.347c0.295,0.454,1.052,1.866,0.326,3.498
		c-0.107,0.241-10.497,24.603,10.322,62.925c0.125,0.231,2.95,5.583,2.555,12.304c-0.042,0.708-0.092,1.44-0.145,2.194
		c-0.4,5.776-0.898,12.964,2.317,18.46c0.112,0.195,2.62,4.452,7.455,4.452h6.812c0.829,0,1.5,0.671,1.5,1.5
		S76.801,151.4,75.972,151.4z"/>
	<path d="M64.246,62.922c-0.023,0-0.046,0-0.069-0.001c-0.629-0.029-1.173-0.447-1.362-1.048c-1.216-3.861-1.897-8.688-2.264-12.245
		c-0.825,1.889-1.729,4.201-2.474,6.325c-0.227,0.646-0.859,1.053-1.545,0.998c-0.682-0.059-1.238-0.573-1.35-1.248
		c-2.208-13.255,1.904-24.007,2.08-24.458c0.301-0.771,1.17-1.152,1.941-0.852c0.771,0.3,1.153,1.169,0.854,1.941
		c-0.033,0.085-2.73,7.173-2.502,16.63c1.051-2.451,2.222-4.754,3.168-5.512c0.442-0.353,1.042-0.428,1.556-0.196
		c0.514,0.233,0.854,0.734,0.88,1.298c0.003,0.078,0.302,6.306,1.448,12.113l4.003-9.574c0.319-0.764,1.2-1.125,1.962-0.805
		c0.764,0.319,1.125,1.198,0.805,1.962L65.63,62C65.396,62.561,64.848,62.922,64.246,62.922z"/>
	<path d="M86.786,62.922c-0.602,0-1.149-0.361-1.383-0.921l-5.75-13.75c-0.32-0.764,0.041-1.643,0.805-1.962
		c0.763-0.32,1.643,0.041,1.962,0.805l4.004,9.574c1.147-5.81,1.444-12.035,1.448-12.113c0.026-0.564,0.366-1.065,0.88-1.298
		c0.512-0.232,1.115-0.158,1.556,0.196c0.947,0.758,2.119,3.064,3.17,5.517c0.234-9.479-2.47-16.549-2.503-16.634
		c-0.301-0.771,0.08-1.642,0.852-1.943c0.774-0.302,1.642,0.08,1.943,0.852c0.176,0.451,4.289,11.204,2.08,24.458
		c-0.112,0.675-0.668,1.189-1.35,1.248c-0.675,0.055-1.318-0.352-1.545-0.998c-0.745-2.123-1.649-4.435-2.474-6.324
		c-0.367,3.556-1.048,8.383-2.264,12.244c-0.189,0.601-0.733,1.02-1.362,1.048C86.832,62.921,86.809,62.922,86.786,62.922z"/>
	<path d="M83.718,144.737c-2.835,0-5.142-2.306-5.142-5.141s2.307-5.141,5.142-5.141s5.141,2.306,5.141,5.141
		S86.552,144.737,83.718,144.737z M83.718,137.456c-1.181,0-2.142,0.96-2.142,2.141s0.961,2.141,2.142,2.141s2.141-0.96,2.141-2.141
		S84.898,137.456,83.718,137.456z"/>
	<path d="M80.077,141.096c-0.036,0-0.073-0.001-0.11-0.004c-0.826-0.06-1.447-0.778-1.388-1.604
		c0.192-2.659,2.56-7.688,10.145-7.688c0.829,0,1.5,0.671,1.5,1.5s-0.671,1.5-1.5,1.5c-6.72,0-7.138,4.705-7.152,4.905
		C81.515,140.494,80.857,141.096,80.077,141.096z"/>
	<path d="M75.66,44.623"/>
	<path d="M96.495,85.539c-0.024,0-0.049,0-0.074-0.002c-0.828-0.04-1.466-0.744-1.425-1.571
		c0.641-13.175,12.191-14.165,12.308-14.173c0.828-0.051,1.545,0.562,1.604,1.388c0.06,0.825-0.559,1.542-1.383,1.604
		c-0.388,0.032-9.024,0.864-9.533,11.327C97.953,84.915,97.29,85.539,96.495,85.539z"/>
	<path d="M104.556,80.586c-2.312,0-4.339-1.608-4.708-3.875l0,0c-0.202-1.242,0.116-2.487,0.896-3.506
		c0.76-0.993,1.872-1.652,3.131-1.856c1.256-0.205,2.52,0.068,3.555,0.769c1.062,0.72,1.758,1.799,1.96,3.041
		c0.409,2.529-1.396,4.933-4.024,5.361C105.094,80.564,104.823,80.586,104.556,80.586z M102.808,76.229
		c0.146,0.896,1.075,1.49,2.076,1.33c0.997-0.163,1.69-1.023,1.545-1.92c-0.067-0.417-0.31-0.785-0.681-1.037
		c-0.399-0.27-0.893-0.372-1.392-0.292c-0.501,0.081-0.938,0.336-1.23,0.719C102.853,75.385,102.74,75.812,102.808,76.229
		L102.808,76.229z"/>
	<path d="M82.244,151.4h-6.812c-0.829,0-1.5-0.671-1.5-1.5s0.671-1.5,1.5-1.5h6.812c4.835,0,7.343-4.257,7.447-4.438
		c3.223-5.51,2.725-12.698,2.325-18.474c-0.052-0.754-0.103-1.487-0.145-2.194c-0.395-6.721,2.43-12.073,2.551-12.297
		c20.823-38.329,10.434-62.69,10.326-62.932c-0.726-1.633,0.031-3.044,0.326-3.498l1.167-2.292
		c6.233-11.084,5.381-21.562-2.435-30.354l-0.211-0.24c-1.448,3.548-6.677,16.379-7.522,18.728
		c-0.402,1.117-1.097,2.641-2.481,2.961c-0.729,0.169-1.364-0.073-1.761-0.389c-5.269-3.67-10.871-4.74-13.747-5.051
		c-0.824-0.089-1.419-0.829-1.33-1.652c0.088-0.824,0.834-1.418,1.652-1.33c3.722,0.402,9.203,1.63,14.541,5.166
		c0.087-0.173,0.189-0.407,0.302-0.721c1-2.776,7.656-19.062,7.939-19.754c0.02-0.048,0.042-0.094,0.065-0.139
		c0.284-0.531,0.91-1.133,1.816-1.23c0.952-0.104,1.869,0.364,2.734,1.383l0.243,0.276c8.621,9.697,9.628,21.688,2.836,33.763
		l-1.179,2.32c-0.04,0.077-0.085,0.15-0.137,0.219v0c0.002,0-0.208,0.328-0.08,0.616c0.113,0.255,11.089,25.969-10.428,65.575
		c-0.021,0.039-2.54,4.85-2.195,10.696c0.041,0.697,0.091,1.42,0.143,2.163c0.428,6.187,0.961,13.888-2.72,20.182
		C92.162,145.687,88.855,151.4,82.244,151.4z"/>
	<path d="M92.744,31.789"/>
	<path d="M69.871,117.172c-0.829,0-1.5-0.671-1.5-1.5c0-11.797-9.065-22.934-9.157-23.045c-0.526-0.639-0.436-1.584,0.203-2.111
		c0.638-0.527,1.583-0.438,2.11,0.202c0.402,0.486,9.844,12.064,9.844,24.955C71.371,116.5,70.699,117.172,69.871,117.172z"/>
	<path d="M81.873,117.172c-0.829,0-1.5-0.671-1.5-1.5c0-12.891,9.441-24.469,9.844-24.955c0.527-0.639,1.471-0.729,2.11-0.202
		s0.729,1.472,0.203,2.111c-0.092,0.111-9.157,11.249-9.157,23.045C83.373,116.5,82.701,117.172,81.873,117.172z"/>
	<g>
		<path d="M75.498,77.172c-4.985,0-8.604-3.341-8.604-7.944c0.003-0.14,0.308-9.732,2.35-25.864
			c2.03-16.047,4.827-41.769,4.854-42.027C74.181,0.577,74.823,0,75.589,0c0,0,0,0,0.001,0c0.765,0,1.407,0.576,1.491,1.336
			l4.58,41.618c0.102,0.876,2.532,21.743,2.532,26.275C84.193,73.832,80.536,77.172,75.498,77.172z M75.584,15.161
			c-0.983,8.733-2.282,20.027-3.363,28.581c-2.022,15.973-2.324,25.438-2.327,25.532c0,2.866,2.305,4.899,5.604,4.899
			c2.743,0,5.695-1.547,5.695-4.944c0-4.358-2.488-25.722-2.513-25.937L75.584,15.161z"/>
	</g>
	<path d="M75.261,67.303c-3.351,0-6.024-1.347-7.364-2.49c-0.63-0.537-0.706-1.484-0.168-2.114c0.535-0.629,1.479-0.705,2.109-0.173
		c0.216,0.179,4.976,4.017,11.388-0.115c0.697-0.45,1.625-0.249,2.073,0.448c0.449,0.696,0.248,1.625-0.448,2.073
		C80.146,66.676,77.546,67.303,75.261,67.303z"/>
	<path d="M75.261,57.97c-3.351,0-6.024-1.346-7.364-2.489c-0.63-0.538-0.706-1.484-0.168-2.115c0.537-0.629,1.479-0.705,2.109-0.173
		c0.215,0.178,4.976,4.015,11.388-0.115c0.697-0.449,1.625-0.249,2.073,0.448c0.449,0.696,0.248,1.625-0.448,2.073
		C80.146,57.344,77.546,57.97,75.261,57.97z"/>
	<path d="M75.303,48.647c-2.28,0-4.114-0.638-5.262-1.181c-0.749-0.354-1.069-1.249-0.714-1.998
		c0.355-0.749,1.251-1.068,1.998-0.714c1.858,0.88,4.83,1.562,8.435-0.183c0.747-0.362,1.643-0.049,2.004,0.696
		c0.361,0.746,0.049,1.643-0.696,2.004C78.963,48.291,77.009,48.647,75.303,48.647z"/>
	<path d="M75.284,39.318c-1.337,0-2.665-0.219-3.948-0.659c-0.784-0.269-1.202-1.121-0.933-1.905s1.123-1.202,1.905-0.933
		c2.079,0.711,4.229,0.669,6.389-0.129c0.775-0.285,1.64,0.11,1.927,0.888c0.287,0.777-0.111,1.64-0.888,1.927
		C78.27,39.047,76.771,39.318,75.284,39.318z"/>
</g>
<g>
</g>
<g>
</g>
<g>
</g>
<g>
</g>
<g>
</g>
<g>
</g>
<g>
</g>
<g>
</g>
<g>
</g>
<g>
</g>
<g>
</g>
<g>
</g>
<g>
</g>
<g>
</g>
<g>
</g>
</svg>
